<?xml version="1.0" encoding="UTF-8"?>
<!DOCTYPE svg PUBLIC "-//W3C//DTD SVG 1.1//EN" "http://www.w3.org/Graphics/SVG/1.1/DTD/svg11.dtd">
<svg xmlns="http://www.w3.org/2000/svg" version="1.1" width="668px" height="374px" style="shape-rendering:geometricPrecision; text-rendering:geometricPrecision; image-rendering:optimizeQuality; fill-rule:evenodd; clip-rule:evenodd" xmlns:xlink="http://www.w3.org/1999/xlink">
<g><path style="opacity:0.231" fill="#a1d0dc" d="M 387.5,95.5 C 377.248,93.1048 366.915,90.9381 356.5,89C 349.495,88.6666 342.495,88.8333 335.5,89.5C 353.203,85.0084 370.537,87.0084 387.5,95.5 Z"/></g>
<g><path style="opacity:1" fill="#6fcae4" d="M 387.5,95.5 C 392.107,97.8033 396.44,100.47 400.5,103.5C 401.043,106.754 402.71,109.254 405.5,111C 402.515,115.717 403.348,116.55 408,113.5C 408.662,114.984 409.496,116.317 410.5,117.5C 409.417,117.461 408.417,117.127 407.5,116.5C 407.264,117.247 406.93,118.08 406.5,119C 404.19,119.497 401.857,119.663 399.5,119.5C 399.73,115.824 400.73,113.157 402.5,111.5C 401.5,111.5 400.5,111.5 399.5,111.5C 399.5,112.5 399.5,113.5 399.5,114.5C 394.025,113.919 388.858,114.586 384,116.5C 383.517,115.552 383.351,114.552 383.5,113.5C 378.594,112.588 375.261,114.421 373.5,119C 374.737,119.232 375.737,119.732 376.5,120.5C 373.813,120.659 371.48,119.825 369.5,118C 360.865,116.919 352.199,116.419 343.5,116.5C 343.953,115.542 344.619,114.708 345.5,114C 340.474,112.506 336.308,113.673 333,117.5C 331.381,118.083 329.548,118.083 327.5,117.5C 325.42,118.331 323.42,119.331 321.5,120.5C 320.833,120.167 320.167,119.833 319.5,119.5C 321.391,118.689 322.724,117.356 323.5,115.5C 326.07,114.777 328.403,113.61 330.5,112C 329.271,111.219 327.938,110.719 326.5,110.5C 324.892,112.262 322.892,113.428 320.5,114C 315.136,114.829 309.802,114.663 304.5,113.5C 303.572,112.232 303.405,110.899 304,109.5C 305.918,108.458 307.751,107.292 309.5,106C 308.263,105.768 307.263,105.268 306.5,104.5C 307.923,102.455 309.923,101.455 312.5,101.5C 312.5,100.5 312.5,99.5 312.5,98.5C 319.452,93.8377 327.118,90.8377 335.5,89.5C 342.495,88.8333 349.495,88.6666 356.5,89C 366.915,90.9381 377.248,93.1048 387.5,95.5 Z"/></g>
<g><path style="opacity:1" fill="#6dc4e1" d="M 306.5,104.5 C 307.263,105.268 308.263,105.768 309.5,106C 307.751,107.292 305.918,108.458 304,109.5C 303.405,110.899 303.572,112.232 304.5,113.5C 309.802,114.663 315.136,114.829 320.5,114C 322.892,113.428 324.892,112.262 326.5,110.5C 327.938,110.719 329.271,111.219 330.5,112C 328.403,113.61 326.07,114.777 323.5,115.5C 322.724,117.356 321.391,118.689 319.5,119.5C 320.167,119.833 320.833,120.167 321.5,120.5C 323.42,119.331 325.42,118.331 327.5,117.5C 329.548,118.083 331.381,118.083 333,117.5C 336.308,113.673 340.474,112.506 345.5,114C 344.619,114.708 343.953,115.542 343.5,116.5C 340.946,117.388 338.279,117.721 335.5,117.5C 335.5,118.5 335.5,119.5 335.5,120.5C 328.134,124.182 321.467,128.848 315.5,134.5C 313.938,134.733 312.605,135.4 311.5,136.5C 310.883,136.389 310.383,136.056 310,135.5C 309.363,137.303 308.197,138.636 306.5,139.5C 307.855,140.675 307.688,141.675 306,142.5C 302.955,140.281 301.789,137.281 302.5,133.5C 296.605,133.569 290.938,134.736 285.5,137C 287.394,138.101 288.061,139.434 287.5,141C 286.207,141.49 284.873,141.657 283.5,141.5C 283.665,144.518 283.498,147.518 283,150.5C 282.029,154.567 280.696,158.567 279,162.5C 276.534,158.128 277.034,154.295 280.5,151C 279.556,148.281 279.223,145.448 279.5,142.5C 279.745,138.251 281.245,134.584 284,131.5C 284.494,129.866 284.66,128.199 284.5,126.5C 287.246,123.249 290.246,120.083 293.5,117C 294.448,116.517 295.448,116.351 296.5,116.5C 296.703,111.964 299.036,109.298 303.5,108.5C 303.088,106.027 304.088,104.694 306.5,104.5 Z"/></g>
<g><path style="opacity:1" fill="#6ec4e1" d="M 410.5,117.5 C 414.225,118.895 416.558,121.562 417.5,125.5C 415.148,126.952 414.815,128.952 416.5,131.5C 415.147,132.524 414.48,133.857 414.5,135.5C 408.463,135.829 402.463,135.496 396.5,134.5C 394.497,131.747 393.663,132.081 394,135.5C 395.011,136.337 396.178,136.67 397.5,136.5C 399.509,142.863 401.676,149.196 404,155.5C 404.499,160.489 404.666,165.489 404.5,170.5C 404.5,171.167 404.167,171.5 403.5,171.5C 403.717,165.768 403.217,160.101 402,154.5C 401.861,151.555 400.694,149.221 398.5,147.5C 394.246,141.238 389.58,135.238 384.5,129.5C 382.541,125.874 379.874,122.874 376.5,120.5C 375.737,119.732 374.737,119.232 373.5,119C 375.261,114.421 378.594,112.588 383.5,113.5C 383.351,114.552 383.517,115.552 384,116.5C 388.858,114.586 394.025,113.919 399.5,114.5C 399.5,113.5 399.5,112.5 399.5,111.5C 400.5,111.5 401.5,111.5 402.5,111.5C 400.73,113.157 399.73,115.824 399.5,119.5C 401.857,119.663 404.19,119.497 406.5,119C 406.93,118.08 407.264,117.247 407.5,116.5C 408.417,117.127 409.417,117.461 410.5,117.5 Z"/></g>
<g><path style="opacity:1" fill="#88c6d7" d="M 312.5,98.5 C 312.5,99.5 312.5,100.5 312.5,101.5C 309.923,101.455 307.923,102.455 306.5,104.5C 304.088,104.694 303.088,106.027 303.5,108.5C 299.036,109.298 296.703,111.964 296.5,116.5C 295.448,116.351 294.448,116.517 293.5,117C 290.246,120.083 287.246,123.249 284.5,126.5C 290.837,114.163 300.17,104.83 312.5,98.5 Z"/></g>
<g><path style="opacity:0.927" fill="#89c7d6" d="M 343.5,116.5 C 352.199,116.419 360.865,116.919 369.5,118C 371.48,119.825 373.813,120.659 376.5,120.5C 379.874,122.874 382.541,125.874 384.5,129.5C 381.337,127.189 378.003,125.022 374.5,123C 361.777,118.091 348.777,117.258 335.5,120.5C 335.5,119.5 335.5,118.5 335.5,117.5C 338.279,117.721 340.946,117.388 343.5,116.5 Z"/></g>
<g><path style="opacity:1" fill="#88c0d5" d="M 400.5,103.5 C 422.825,120.49 433.659,143.156 433,171.5C 432.892,175.465 432.059,179.132 430.5,182.5C 430.425,173.569 430.258,164.569 430,155.5C 428.592,151.943 427.592,148.276 427,144.5C 425.989,143.663 424.822,143.33 423.5,143.5C 423.665,140.15 423.498,136.817 423,133.5C 421.278,130.637 419.445,127.97 417.5,125.5C 416.558,121.562 414.225,118.895 410.5,117.5C 409.496,116.317 408.662,114.984 408,113.5C 403.348,116.55 402.515,115.717 405.5,111C 402.71,109.254 401.043,106.754 400.5,103.5 Z"/></g>
<g><path style="opacity:1" fill="#dd8284" d="M 351.5,144.5 C 343.358,140.834 335.025,140.667 326.5,144C 325.26,146.744 323.26,148.577 320.5,149.5C 323.133,143.345 327.799,139.845 334.5,139C 338.551,138.482 342.551,138.816 346.5,140C 348.66,140.996 350.327,142.496 351.5,144.5 Z"/></g>
<g><path style="opacity:0.757" fill="#d68483" d="M 385.5,164.5 C 384.143,165.59 383.143,166.924 382.5,168.5C 382.5,167.167 382.5,165.833 382.5,164.5C 383.117,164.389 383.617,164.056 384,163.5C 384.667,159.5 384.667,155.5 384,151.5C 383.376,149.246 382.043,147.579 380,146.5C 379.517,145.552 379.351,144.552 379.5,143.5C 375.792,141.676 371.792,140.676 367.5,140.5C 365.167,140.667 362.833,140.833 360.5,141C 358.186,142.267 355.852,143.434 353.5,144.5C 355.764,140.865 359.098,139.032 363.5,139C 374.624,136.809 382.124,140.976 386,151.5C 386.814,156.02 386.647,160.354 385.5,164.5 Z"/></g>
<g><path style="opacity:1" fill="#f26b69" d="M 382.5,164.5 C 381.306,161.982 380.14,161.982 379,164.5C 378.682,162.939 377.849,161.772 376.5,161C 379.133,158.087 378.467,156.254 374.5,155.5C 374.5,156.833 374.5,158.167 374.5,159.5C 372.833,159.5 371.167,159.5 369.5,159.5C 369.338,157.473 369.505,155.473 370,153.5C 371.067,152.809 372.234,152.309 373.5,152C 370.443,152.107 368.109,150.94 366.5,148.5C 363.024,151.869 359.358,152.202 355.5,149.5C 355.906,151.374 355.072,153.04 353,154.5C 348.566,153.411 344.066,153.411 339.5,154.5C 336.719,153.529 334.052,152.696 331.5,152C 330.491,153.87 330.324,156.037 331,158.5C 328.743,160.715 327.41,163.048 327,165.5C 326.014,163.222 325.18,160.889 324.5,158.5C 323.675,157.614 322.675,157.281 321.5,157.5C 321.5,159.5 321.5,161.5 321.5,163.5C 320.833,159.167 320.167,154.833 319.5,150.5C 319.5,149.833 319.833,149.5 320.5,149.5C 323.26,148.577 325.26,146.744 326.5,144C 335.025,140.667 343.358,140.834 351.5,144.5C 352.167,144.5 352.833,144.5 353.5,144.5C 355.852,143.434 358.186,142.267 360.5,141C 362.833,140.833 365.167,140.667 367.5,140.5C 371.792,140.676 375.792,141.676 379.5,143.5C 379.351,144.552 379.517,145.552 380,146.5C 382.043,147.579 383.376,149.246 384,151.5C 384.667,155.5 384.667,159.5 384,163.5C 383.617,164.056 383.117,164.389 382.5,164.5 Z"/></g>
<g><path style="opacity:1" fill="#67b9dc" d="M 311.5,136.5 C 309.458,140.653 306.958,144.653 304,148.5C 298.179,169.579 302.345,188.246 316.5,204.5C 313.446,203.85 311.446,202.016 310.5,199C 309.552,198.517 308.552,198.351 307.5,198.5C 307.67,199.822 307.337,200.989 306.5,202C 309,203.134 310.167,204.968 310,207.5C 308.951,208.517 307.784,208.684 306.5,208C 304.826,206.494 303.826,204.661 303.5,202.5C 300.833,202.5 298.167,202.5 295.5,202.5C 295.665,199.15 295.498,195.817 295,192.5C 291.715,192.021 288.881,190.688 286.5,188.5C 284.596,192.444 283.596,192.11 283.5,187.5C 281.381,187.468 280.048,188.468 279.5,190.5C 275.645,182.221 273.978,173.388 274.5,164C 274.101,156.929 275.101,150.096 277.5,143.5C 278.183,143.137 278.85,142.804 279.5,142.5C 279.223,145.448 279.556,148.281 280.5,151C 277.034,154.295 276.534,158.128 279,162.5C 280.696,158.567 282.029,154.567 283,150.5C 283.498,147.518 283.665,144.518 283.5,141.5C 284.873,141.657 286.207,141.49 287.5,141C 288.061,139.434 287.394,138.101 285.5,137C 290.938,134.736 296.605,133.569 302.5,133.5C 301.789,137.281 302.955,140.281 306,142.5C 307.688,141.675 307.855,140.675 306.5,139.5C 308.197,138.636 309.363,137.303 310,135.5C 310.383,136.056 310.883,136.389 311.5,136.5 Z"/></g>
<g><path style="opacity:1" fill="#f16262" d="M 382.5,164.5 C 382.5,165.833 382.5,167.167 382.5,168.5C 381.088,170.604 380.088,172.937 379.5,175.5C 378.5,175.5 377.5,175.5 376.5,175.5C 376.715,177.179 376.048,178.179 374.5,178.5C 374.494,175.175 375.994,172.841 379,171.5C 379.495,169.527 379.662,167.527 379.5,165.5C 376.324,165.67 374.324,167.337 373.5,170.5C 371.896,167.608 370.062,164.941 368,162.5C 366.705,163.841 366.205,165.174 366.5,166.5C 363.64,165.943 360.807,165.609 358,165.5C 351.203,166.279 344.37,166.779 337.5,167C 333.674,169.363 332.007,168.197 332.5,163.5C 331.5,163.5 330.5,163.5 329.5,163.5C 329.998,166.01 330.664,168.51 331.5,171C 331.333,172.167 331.167,173.333 331,174.5C 330.465,172.729 329.631,172.396 328.5,173.5C 329.559,175.534 330.559,177.534 331.5,179.5C 331.167,179.5 330.833,179.5 330.5,179.5C 326.659,174.654 323.659,169.321 321.5,163.5C 321.5,161.5 321.5,159.5 321.5,157.5C 322.675,157.281 323.675,157.614 324.5,158.5C 325.18,160.889 326.014,163.222 327,165.5C 327.41,163.048 328.743,160.715 331,158.5C 330.324,156.037 330.491,153.87 331.5,152C 334.052,152.696 336.719,153.529 339.5,154.5C 344.066,153.411 348.566,153.411 353,154.5C 355.072,153.04 355.906,151.374 355.5,149.5C 359.358,152.202 363.024,151.869 366.5,148.5C 368.109,150.94 370.443,152.107 373.5,152C 372.234,152.309 371.067,152.809 370,153.5C 369.505,155.473 369.338,157.473 369.5,159.5C 371.167,159.5 372.833,159.5 374.5,159.5C 374.5,158.167 374.5,156.833 374.5,155.5C 378.467,156.254 379.133,158.087 376.5,161C 377.849,161.772 378.682,162.939 379,164.5C 380.14,161.982 381.306,161.982 382.5,164.5 Z"/></g>
<g><path style="opacity:1" fill="#68bbdd" d="M 417.5,125.5 C 419.445,127.97 421.278,130.637 423,133.5C 423.498,136.817 423.665,140.15 423.5,143.5C 424.822,143.33 425.989,143.663 427,144.5C 427.592,148.276 428.592,151.943 430,155.5C 430.258,164.569 430.425,173.569 430.5,182.5C 430.472,185.916 429.472,188.916 427.5,191.5C 425.303,194.817 423.303,198.151 421.5,201.5C 421.653,198.423 420.986,195.589 419.5,193C 421.703,187.619 421.87,182.119 420,176.5C 419.586,176.043 419.086,175.709 418.5,175.5C 417.919,178.375 416.919,181.042 415.5,183.5C 414.201,182.91 413.368,181.91 413,180.5C 412,181.833 411,181.833 410,180.5C 409.097,176.758 407.93,173.091 406.5,169.5C 405.817,169.863 405.15,170.196 404.5,170.5C 404.666,165.489 404.499,160.489 404,155.5C 401.676,149.196 399.509,142.863 397.5,136.5C 396.178,136.67 395.011,136.337 394,135.5C 393.663,132.081 394.497,131.747 396.5,134.5C 402.463,135.496 408.463,135.829 414.5,135.5C 414.48,133.857 415.147,132.524 416.5,131.5C 414.815,128.952 415.148,126.952 417.5,125.5 Z"/></g>
<g><path style="opacity:0.51" fill="#8dbecf" d="M 398.5,147.5 C 400.694,149.221 401.861,151.555 402,154.5C 403.217,160.101 403.717,165.768 403.5,171.5C 403.817,174.572 403.484,177.572 402.5,180.5C 401.583,181.127 400.583,181.461 399.5,181.5C 402.276,170.121 401.943,158.788 398.5,147.5 Z"/></g>
<g><path style="opacity:0.412" fill="#de9fa1" d="M 385.5,164.5 C 384.786,168.933 382.786,172.6 379.5,175.5C 380.088,172.937 381.088,170.604 382.5,168.5C 383.143,166.924 384.143,165.59 385.5,164.5 Z"/></g>
<g><path style="opacity:1" fill="#f05458" d="M 374.5,178.5 C 368.296,184.635 361.963,190.635 355.5,196.5C 354.833,196.5 354.5,196.833 354.5,197.5C 350.674,197.203 347.674,195.37 345.5,192C 342.667,191.833 341.167,190.333 341,187.5C 337.349,185.344 334.183,182.678 331.5,179.5C 330.559,177.534 329.559,175.534 328.5,173.5C 329.631,172.396 330.465,172.729 331,174.5C 331.167,173.333 331.333,172.167 331.5,171C 330.664,168.51 329.998,166.01 329.5,163.5C 330.5,163.5 331.5,163.5 332.5,163.5C 332.007,168.197 333.674,169.363 337.5,167C 344.37,166.779 351.203,166.279 358,165.5C 360.807,165.609 363.64,165.943 366.5,166.5C 366.205,165.174 366.705,163.841 368,162.5C 370.062,164.941 371.896,167.608 373.5,170.5C 374.324,167.337 376.324,165.67 379.5,165.5C 379.662,167.527 379.495,169.527 379,171.5C 375.994,172.841 374.494,175.175 374.5,178.5 Z"/></g>
<g><path style="opacity:0.49" fill="#8dbed0" d="M 284.5,126.5 C 284.66,128.199 284.494,129.866 284,131.5C 281.245,134.584 279.745,138.251 279.5,142.5C 278.85,142.804 278.183,143.137 277.5,143.5C 275.101,150.096 274.101,156.929 274.5,164C 273.978,173.388 275.645,182.221 279.5,190.5C 279.655,194.471 281.155,197.805 284,200.5C 284.64,202.265 284.473,203.932 283.5,205.5C 270.034,181.055 269.2,156.055 281,130.5C 281.949,128.907 283.115,127.574 284.5,126.5 Z"/></g>
<g><path style="opacity:0.106" fill="#d68183" d="M 319.5,150.5 C 320.167,154.833 320.833,159.167 321.5,163.5C 323.659,169.321 326.659,174.654 330.5,179.5C 331.5,180.833 332.5,182.167 333.5,183.5C 331.284,182.797 329.451,181.464 328,179.5C 325.333,175.5 322.667,171.5 320,167.5C 318.316,161.857 318.149,156.19 319.5,150.5 Z"/></g>
<g><path style="opacity:0.882" fill="#d5656d" d="M 330.5,179.5 C 330.833,179.5 331.167,179.5 331.5,179.5C 334.183,182.678 337.349,185.344 341,187.5C 341.167,190.333 342.667,191.833 345.5,192C 347.674,195.37 350.674,197.203 354.5,197.5C 353.081,198.451 351.415,198.784 349.5,198.5C 342.855,194.854 337.522,189.854 333.5,183.5C 332.5,182.167 331.5,180.833 330.5,179.5 Z"/></g>
<g><path style="opacity:0.914" fill="#da787b" d="M 379.5,175.5 C 373.527,183.473 366.527,190.473 358.5,196.5C 357.5,196.5 356.5,196.5 355.5,196.5C 361.963,190.635 368.296,184.635 374.5,178.5C 376.048,178.179 376.715,177.179 376.5,175.5C 377.5,175.5 378.5,175.5 379.5,175.5 Z"/></g>
<g><path style="opacity:0.937" fill="#80b7ca" d="M 315.5,134.5 C 299.854,155.592 299.52,176.925 314.5,198.5C 317.879,201.551 321.212,204.551 324.5,207.5C 321.355,207.507 318.689,206.507 316.5,204.5C 302.345,188.246 298.179,169.579 304,148.5C 306.958,144.653 309.458,140.653 311.5,136.5C 312.605,135.4 313.938,134.733 315.5,134.5 Z"/></g>
<g><path style="opacity:1" fill="#5eb1d8" d="M 421.5,201.5 C 420.278,208.875 416.778,214.875 411,219.5C 410.489,221.878 409.822,224.212 409,226.5C 404.343,233.893 399.843,241.226 395.5,248.5C 396.077,244.216 394.41,241.216 390.5,239.5C 390.167,240.167 389.833,240.833 389.5,241.5C 390.651,243.325 391.318,245.325 391.5,247.5C 390.5,247.5 389.5,247.5 388.5,247.5C 388.762,248.978 388.429,250.311 387.5,251.5C 385.889,250.68 385.222,249.346 385.5,247.5C 384.127,247.657 382.793,247.49 381.5,247C 380.219,244.597 378.386,242.763 376,241.5C 375.517,242.448 375.351,243.448 375.5,244.5C 360.84,243.501 346.174,242.501 331.5,241.5C 327.524,242.164 323.524,242.497 319.5,242.5C 318.918,247.376 317.918,247.043 316.5,241.5C 317.744,239.867 317.244,238.867 315,238.5C 313.379,238.725 312.212,239.558 311.5,241C 314.591,244.821 313.591,246.821 308.5,247C 309.861,248.584 310.528,250.418 310.5,252.5C 307.503,247.841 304.503,243.175 301.5,238.5C 301.799,236.396 301.466,234.396 300.5,232.5C 296.815,228.201 294.315,223.201 293,217.5C 291.644,216.62 290.144,216.286 288.5,216.5C 286.269,213.164 284.603,209.497 283.5,205.5C 284.473,203.932 284.64,202.265 284,200.5C 281.155,197.805 279.655,194.471 279.5,190.5C 280.048,188.468 281.381,187.468 283.5,187.5C 283.596,192.11 284.596,192.444 286.5,188.5C 288.881,190.688 291.715,192.021 295,192.5C 295.498,195.817 295.665,199.15 295.5,202.5C 298.167,202.5 300.833,202.5 303.5,202.5C 303.826,204.661 304.826,206.494 306.5,208C 307.784,208.684 308.951,208.517 310,207.5C 310.167,204.968 309,203.134 306.5,202C 307.337,200.989 307.67,199.822 307.5,198.5C 308.552,198.351 309.552,198.517 310.5,199C 311.446,202.016 313.446,203.85 316.5,204.5C 318.689,206.507 321.355,207.507 324.5,207.5C 324.281,208.675 324.614,209.675 325.5,210.5C 327.664,211.414 329.664,212.581 331.5,214C 335.175,213.996 338.175,215.329 340.5,218C 348.798,217.784 356.798,218.951 364.5,221.5C 365.737,221.444 366.737,220.944 367.5,220C 364.201,221.343 362.534,220.176 362.5,216.5C 373.13,215.185 382.13,210.685 389.5,203C 394.929,197.876 398.596,191.709 400.5,184.5C 400.457,183.584 400.124,182.917 399.5,182.5C 399.5,182.167 399.5,181.833 399.5,181.5C 400.583,181.461 401.583,181.127 402.5,180.5C 403.484,177.572 403.817,174.572 403.5,171.5C 404.167,171.5 404.5,171.167 404.5,170.5C 405.15,170.196 405.817,169.863 406.5,169.5C 407.93,173.091 409.097,176.758 410,180.5C 411,181.833 412,181.833 413,180.5C 413.368,181.91 414.201,182.91 415.5,183.5C 416.919,181.042 417.919,178.375 418.5,175.5C 419.086,175.709 419.586,176.043 420,176.5C 421.87,182.119 421.703,187.619 419.5,193C 420.986,195.589 421.653,198.423 421.5,201.5 Z"/></g>
<g><path style="opacity:0.094" fill="#d58f8f" d="M 355.5,196.5 C 356.5,196.5 357.5,196.5 358.5,196.5C 355.944,199.424 352.944,200.09 349.5,198.5C 351.415,198.784 353.081,198.451 354.5,197.5C 354.5,196.833 354.833,196.5 355.5,196.5 Z"/></g>
<g><path style="opacity:1" fill="#76b1cc" d="M 399.5,182.5 C 400.124,182.917 400.457,183.584 400.5,184.5C 398.596,191.709 394.929,197.876 389.5,203C 382.13,210.685 373.13,215.185 362.5,216.5C 362.534,220.176 364.201,221.343 367.5,220C 366.737,220.944 365.737,221.444 364.5,221.5C 356.798,218.951 348.798,217.784 340.5,218C 338.175,215.329 335.175,213.996 331.5,214C 329.664,212.581 327.664,211.414 325.5,210.5C 324.614,209.675 324.281,208.675 324.5,207.5C 348.1,220.846 369.766,218.179 389.5,199.5C 393.685,194.319 397.019,188.653 399.5,182.5 Z"/></g>
<g><path style="opacity:0.569" fill="#7db3ca" d="M 288.5,216.5 C 290.144,216.286 291.644,216.62 293,217.5C 294.315,223.201 296.815,228.201 300.5,232.5C 301.466,234.396 301.799,236.396 301.5,238.5C 296.378,231.693 292.044,224.36 288.5,216.5 Z"/></g>
<g><path style="opacity:0.51" fill="#7fb1c9" d="M 427.5,191.5 C 425.698,198.402 423.198,205.069 420,211.5C 408.722,231.749 396.222,251.083 382.5,269.5C 382.586,268.504 382.252,267.671 381.5,267C 383.628,265.333 384.961,263.166 385.5,260.5C 389.404,259.151 390.737,256.651 389.5,253C 390.328,252.085 391.328,251.419 392.5,251C 392.167,250.667 391.833,250.333 391.5,250C 393.058,249.79 394.391,249.29 395.5,248.5C 399.843,241.226 404.343,233.893 409,226.5C 409.822,224.212 410.489,221.878 411,219.5C 416.778,214.875 420.278,208.875 421.5,201.5C 423.303,198.151 425.303,194.817 427.5,191.5 Z"/></g>
<g><path style="opacity:1" fill="#5babd4" d="M 395.5,248.5 C 394.391,249.29 393.058,249.79 391.5,250C 391.833,250.333 392.167,250.667 392.5,251C 391.328,251.419 390.328,252.085 389.5,253C 390.737,256.651 389.404,259.151 385.5,260.5C 384.961,263.166 383.628,265.333 381.5,267C 382.252,267.671 382.586,268.504 382.5,269.5C 378.185,275.81 373.518,281.81 368.5,287.5C 368.468,283.364 370.302,280.364 374,278.5C 374.494,276.866 374.66,275.199 374.5,273.5C 375.833,273.5 377.167,273.5 378.5,273.5C 378.367,270.104 377.367,269.771 375.5,272.5C 373.836,271.777 372.169,272.11 370.5,273.5C 367.024,272.246 363.358,271.579 359.5,271.5C 355.733,271.547 352.233,272.214 349,273.5C 348.692,272.692 348.192,272.025 347.5,271.5C 346.636,273.197 345.303,274.363 343.5,275C 340.905,275.226 338.405,275.726 336,276.5C 335.586,276.043 335.086,275.709 334.5,275.5C 334.167,276.5 333.833,277.5 333.5,278.5C 334.985,281.326 335.985,284.326 336.5,287.5C 327.094,276.421 318.427,264.754 310.5,252.5C 310.528,250.418 309.861,248.584 308.5,247C 313.591,246.821 314.591,244.821 311.5,241C 312.212,239.558 313.379,238.725 315,238.5C 317.244,238.867 317.744,239.867 316.5,241.5C 317.918,247.043 318.918,247.376 319.5,242.5C 323.524,242.497 327.524,242.164 331.5,241.5C 346.174,242.501 360.84,243.501 375.5,244.5C 375.351,243.448 375.517,242.448 376,241.5C 378.386,242.763 380.219,244.597 381.5,247C 382.793,247.49 384.127,247.657 385.5,247.5C 385.222,249.346 385.889,250.68 387.5,251.5C 388.429,250.311 388.762,248.978 388.5,247.5C 389.5,247.5 390.5,247.5 391.5,247.5C 391.318,245.325 390.651,243.325 389.5,241.5C 389.833,240.833 390.167,240.167 390.5,239.5C 394.41,241.216 396.077,244.216 395.5,248.5 Z"/></g>
<g><path style="opacity:1" fill="#57a5d2" d="M 368.5,287.5 C 368.167,288.167 367.833,288.833 367.5,289.5C 366.448,289.351 365.448,289.517 364.5,290C 361.771,293.427 358.771,296.594 355.5,299.5C 353.509,298.573 351.509,298.406 349.5,299C 347.561,298.092 346.561,296.592 346.5,294.5C 345.448,294.649 344.448,294.483 343.5,294C 342.258,292.125 340.924,290.291 339.5,288.5C 338.675,287.614 337.675,287.281 336.5,287.5C 335.985,284.326 334.985,281.326 333.5,278.5C 333.833,277.5 334.167,276.5 334.5,275.5C 335.086,275.709 335.586,276.043 336,276.5C 338.405,275.726 340.905,275.226 343.5,275C 345.303,274.363 346.636,273.197 347.5,271.5C 348.192,272.025 348.692,272.692 349,273.5C 352.233,272.214 355.733,271.547 359.5,271.5C 363.358,271.579 367.024,272.246 370.5,273.5C 372.169,272.11 373.836,271.777 375.5,272.5C 377.367,269.771 378.367,270.104 378.5,273.5C 377.167,273.5 375.833,273.5 374.5,273.5C 374.66,275.199 374.494,276.866 374,278.5C 370.302,280.364 368.468,283.364 368.5,287.5 Z"/></g>
<g><path style="opacity:0.999" fill="#70a4c5" d="M 336.5,287.5 C 337.675,287.281 338.675,287.614 339.5,288.5C 340.924,290.291 342.258,292.125 343.5,294C 344.448,294.483 345.448,294.649 346.5,294.5C 346.561,296.592 347.561,298.092 349.5,299C 351.509,298.406 353.509,298.573 355.5,299.5C 358.771,296.594 361.771,293.427 364.5,290C 365.448,289.517 366.448,289.351 367.5,289.5C 364.38,293.792 361.047,297.959 357.5,302C 354.577,303.71 351.577,303.877 348.5,302.5C 343.771,298.017 339.771,293.017 336.5,287.5 Z"/></g>
</svg>
